<ttFont>
          <CharString index="0">
            -98 callsubr
            -55 -102 callsubr
            return
          </CharString>
          <CharString index="1">
            rmoveto
            -104 callsubr
            162 hmoveto
            -104 callsubr
            endchar
          </CharString>
          <CharString index="2">
            hlineto
            -96 callsubr
            return
          </CharString>
          <CharString index="3">
            31 -25 26 -32 -31 -26 -26 -31 -32 26 -25 31 32 25 25 32 vhcurveto
            return
          </CharString>
          <CharString index="4">
            -93 callsubr
            55 -105 callsubr
            return
          </CharString>
          <CharString index="5">
            hlineto
            -94 callsubr
            return
          </CharString>
          <CharString index="6">
            406 366 -15 callsubr
            -92 callsubr
            -134 -28 rmoveto
            -107 callsubr
            301 vlineto
            -103 callsubr
            return
          </CharString>
          <CharString index="7">
            431 -30 callsubr
            -37 callsubr
            -403 -99 callsubr
            133 -91 callsubr
            -140 -16 rmoveto
            -85 callsubr
            return
          </CharString>
          <CharString index="8">
            vlineto
            -90 callsubr
            return
          </CharString>
          <CharString index="9">
            -11 -9 -9 -10 vhcurveto
            return
          </CharString>
          <CharString index="10">
            hlineto
            -87 callsubr
            return
          </CharString>
          <CharString index="11">
            10 9 -9 -11 hvcurveto
            return
          </CharString>
          <CharString index="12">
            -89 callsubr
            -93 callsubr
            63 hlineto
            10 9 -9 -11 hvcurveto
            -217 vlineto
            return
          </CharString>
          <CharString index="13">
            -10 -9 9 11 hvcurveto
            return
          </CharString>
          <CharString index="14">
            11 9 9 10 vhcurveto
            return
          </CharString>
          <CharString index="15">
            -113 -97 callsubr
            -244 -99 callsubr
            -64 callsubr
            return
          </CharString>
          <CharString index="16">
            hlineto
            -83 callsubr
            return
          </CharString>
          <CharString index="17">
            -92 45 -40 79 vhcurveto
            return
          </CharString>
          <CharString index="18">
            -57 callsubr
            -525 140 217 101 -217 140 -52 callsubr
            -117 -332 rmoveto
            217 vlineto
            return
          </CharString>
          <CharString index="19">
            -51 callsubr
            -100 callsubr
            return
          </CharString>
          <CharString index="20">
            -79 -45 -40 -92 hvcurveto
            return
          </CharString>
          <CharString index="21">
            92 -45 40 -79 vhcurveto
            return
          </CharString>
          <CharString index="22">
            -98 callsubr
            -63 -102 callsubr
            436 -62 callsubr
            return
          </CharString>
          <CharString index="23">
            vlineto
            -86 callsubr
            return
          </CharString>
          <CharString index="24">
            79 45 40 92 hvcurveto
            return
          </CharString>
          <CharString index="25">
            -31 callsubr
            hintmask 10011101
            -23 callsubr
            hintmask 10101101
            31 36 callsubr
            -47 hhcurveto
            -65 callsubr
            21 hlineto
            47 35 15 31 21 hvcurveto
            hintmask 01011101
            -14 callsubr
            hintmask 10101110
            -81 callsubr
            return
          </CharString>
          <CharString index="26">
            27 callsubr
            rmoveto
            -107 callsubr
            276 vlineto
            -103 callsubr
            return
          </CharString>
          <CharString index="27">
            -63 callsubr
            hintmask 10111110
            -72 callsubr
            hintmask 01111110
            26 callsubr
            hintmask 10111110
            -107 callsubr
            102 227 158 -84 callsubr
            -103 -202 rmoveto
            90 vlineto
            -103 callsubr
            -90 vlineto
            return
          </CharString>
          <CharString index="28">
            -46 -29 32 -60 hhcurveto
            -50 -48 -30 -69 -5 hvcurveto
            -1 -9 27 -2 rlineto
            26 21 21 5 24 hhcurveto
            40 -4 28 -24 51 -5 rrcurveto
            endchar
          </CharString>
          <CharString index="29">
            281 -19 callsubr
            -537 vlineto
            -98 callsubr
            -54 -102 callsubr
            537 -140 -525 -99 callsubr
            124 -91 callsubr
            37 callsubr
            return
          </CharString>
          <CharString index="30">
            rmoveto
            -83 106 rlineto
            -150 hlineto
            -83 -106 rlineto
            99 hlineto
            59 56 59 -56 rlineto
            endchar
          </CharString>
          <CharString index="31">
            272 -1 callsubr
            -382 vlineto
            -107 callsubr
            382 -134 -366 -46 callsubr
            41 32 11 24 21 hvcurveto
            return
          </CharString>
          <CharString index="32">
            hstem
            38 callsubr
            92 140 vstem
            -78 callsubr
            return
          </CharString>
          <CharString index="33">
            3 3 0 3 hhcurveto
            50 48 31 68 5 hvcurveto
            1 9 -27 2 rlineto
            -22 -19 -19 -8 -21 hhcurveto
            return
          </CharString>
          <CharString index="34">
            -27 callsubr
            -76 callsubr
            hintmask 01111100
            8 callsubr
            return
          </CharString>
          <CharString index="35">
            282 498 rmoveto
            -92 callsubr
            return
          </CharString>
          <CharString index="36">
            -40 callsubr
            -25 callsubr
            return
          </CharString>
          <CharString index="37">
            -47 callsubr
            -48 callsubr
            hvcurveto
            return
          </CharString>
          <CharString index="38">
            190 116 rmoveto
            155 145 110 -145 152 155 114 -295 -647 295 60 callsubr
            return
          </CharString>
          <CharString index="39">
            -32 callsubr
            47 102 -80 callsubr
            return
          </CharString>
          <CharString index="40">
            rmoveto
            -147 hlineto
            -83 -102 rlineto
            99 hlineto
            endchar
          </CharString>
          <CharString index="41">
            hstem
            50 callsubr
            vstem
            -69 callsubr
            return
          </CharString>
          <CharString index="42">
            -21 -97 callsubr
            -244 -99 callsubr
            return
          </CharString>
          <CharString index="43">
            113 -91 callsubr
            return
          </CharString>
          <CharString index="44">
            hstemhm
            -71 callsubr
            return
          </CharString>
          <CharString index="45">
            vlineto
            -93 callsubr
            63 -105 callsubr
            return
          </CharString>
          <CharString index="46">
            -64 hlineto
            -45 -26 -23 -52 hvcurveto
            -13 vlineto
            -52 26 -23 45 vhcurveto
            64 hlineto
            45 25 23 52 hvcurveto
            13 vlineto
            52 -25 23 -45 vhcurveto
            -109 vmoveto
            -7 -7 -7 -6 vhcurveto
            -38 hlineto
            -7 -6 7 7 hvcurveto
            54 vlineto
            return
          </CharString>
          <CharString index="47">
            rmoveto
            99 hlineto
            -83 102 rlineto
            -147 hlineto
            endchar
          </CharString>
          <CharString index="48">
            24 callsubr
            41 102 -88 callsubr
            return
          </CharString>
          <CharString index="49">
            -49 callsubr
            41 102 -51 callsubr
            -95 callsubr
            return
          </CharString>
          <CharString index="50">
            307 657 rmoveto
            -37 callsubr
            return
          </CharString>
          <CharString index="51">
            -4 callsubr
            77 102 -73 callsubr
            return
          </CharString>
          <CharString index="52">
            7 callsubr
            71 102 -75 callsubr
            return
          </CharString>
          <CharString index="53">
            -61 callsubr
            -11 callsubr
          </CharString>
          <CharString index="54">
            rmoveto
            -74 callsubr
            hintmask 11011100
            -79 callsubr
          </CharString>
          <CharString index="55">
            525 -84 callsubr
            return
          </CharString>
          <CharString index="56">
            hstem
            -44 callsubr
            vstem
            return
          </CharString>
          <CharString index="57">
            -78 133 61 -84 callsubr
            -126 -97 callsubr
            -403 -99 callsubr
            return
          </CharString>
          <CharString index="58">
            98 21 -21 217 108 237 95 return
          </CharString>
          <CharString index="59">
            41 32 32 39 41 -32 32 -41 return
          </CharString>
          <CharString index="60">
            -39 -32 -32 -41 -39 32 -32 39 return
          </CharString>
          <CharString index="61">
            -99 callsubr
            21 hlineto
            return
          </CharString>
          <CharString index="62">
            hstem
            -71 callsubr
            vstem
            return
          </CharString>
          <CharString index="63">
            50 callsubr
            101 140 return
          </CharString>
          <CharString index="64">
            -35 callsubr
            51 102 -66 callsubr
            return
          </CharString>
          <CharString index="65">
            537 vlineto
            -93 callsubr
            54 -105 callsubr
            -537 return
          </CharString>
          <CharString index="66">
            hstem
            50 callsubr
            vstem
            -36 callsubr
            return
          </CharString>
          <CharString index="67">
            45 134 return
          </CharString>
          <CharString index="68">
            hstem
            146 140 vstem
            425 -19 callsubr
            -132 hlineto
            -77 -270 -77 270 rlineto
            -132 hlineto
            return
          </CharString>
          <CharString index="69">
            -10 96 -65 -29 callsubr
            return
          </CharString>
          <CharString index="70">
            -133 -97 callsubr
            return
          </CharString>
          <CharString index="71">
            190 -19 callsubr
            -21 callsubr
            hlineto
            return
          </CharString>
          <CharString index="72">
            -11 0 116 155 110 152 114 return
          </CharString>
          <CharString index="73">
            421 hmoveto
            -52 callsubr
            -124 -97 callsubr
            -525 140 -42 callsubr
            vlineto
            return
          </CharString>
          <CharString index="74">
            32 -130 -16 -99 callsubr
            100 -91 callsubr
            37 callsubr
            return
          </CharString>
          <CharString index="75">
            48 59 callsubr
            170 48 88 110 92 return
          </CharString>
          <CharString index="76">
            -63 callsubr
            -113 113 return
          </CharString>
          <CharString index="77">
            525 -15 callsubr
            return
          </CharString>
          <CharString index="78">
            -21 402 96 -10 -20 return
          </CharString>
          <CharString index="79">
            -64 callsubr
            129 -84 callsubr
            -16 -277 rmoveto
            -98 callsubr
            -78 201 78 -105 callsubr
            endchar
          </CharString>
          <CharString index="80">
            -63 callsubr
            hintmask 10111100
            return
          </CharString>
          <CharString index="81">
            -39 callsubr
            139 -411 rlineto
            -236 140 236 vlineto
            return
          </CharString>
          <CharString index="82">
            93 134 return
          </CharString>
          <CharString index="83">
            70 -134 -86 vlineto
            hintmask 10011100
            -107 callsubr
            276 vlineto
            -103 callsubr
            return
          </CharString>
          <CharString index="84">
            293 -1 callsubr
            -36 vlineto
            return
          </CharString>
          <CharString index="85">
            21 -9 callsubr
            return
          </CharString>
          <CharString index="86">
            -140 4 callsubr
            return
          </CharString>
          <CharString index="87">
            -21 488 -20 return
          </CharString>
          <CharString index="88">
            647 rmoveto
            return
          </CharString>
          <CharString index="89">
            -3 callsubr
            71 102 -41 callsubr
            return
          </CharString>
          <CharString index="90">
            257 -91 callsubr
            383 -84 callsubr
            -16 -531 rmoveto
            -98 callsubr
            -82 return
          </CharString>
          <CharString index="91">
            -99 callsubr
            118 -91 callsubr
            return
          </CharString>
          <CharString index="92">
            rmoveto
            -86 callsubr
            return
          </CharString>
          <CharString index="93">
            -36 113 488 vlineto
            return
          </CharString>
          <CharString index="94">
            114 48 114 return
          </CharString>
          <CharString index="95">
            21 -20 callsubr
            return
          </CharString>
          <CharString index="96">
            8 6 6 7 vhcurveto
            38 hlineto
            6 7 -6 -8 hvcurveto
            endchar
          </CharString>
          <CharString index="97">
            vlineto
            -98 callsubr
            -79 -102 callsubr
            return
          </CharString>
          <CharString index="98">
            -21 647 -20 return
          </CharString>
          <CharString index="99">
            rmoveto
            249 248 rlineto
            2 vlineto
            -249 248 -84 -84 165 -165 -165 -165 rlineto
            return
          </CharString>
          <CharString index="100">
            rmoveto
            -165 165 165 165 -84 84 -249 -248 rlineto
            -2 vlineto
            249 -248 rlineto
            return
          </CharString>
          <CharString index="101">
            144 hstem
            59 144 vstem
            130 return
          </CharString>
          <CharString index="102">
            -16 callsubr
            96 vlineto
            56 -17 36 -30 21 vhcurveto
            return
          </CharString>
          <CharString index="103">
            -10 96 -65 -20 callsubr
            return
          </CharString>
          <CharString index="104">
            -143 -22 callsubr
            return
          </CharString>
          <CharString index="105">
            -141 -12 callsubr
            return
          </CharString>
          <CharString index="106">
            488 rmoveto
            return
          </CharString>
          <CharString index="107">
            80 -80 112 -63 callsubr
            return
          </CharString>
          <CharString index="108">
            -169 96 -96 148 43 96 370 -20 return
          </CharString>
          <CharString index="109">
            hstemhm
            -40 callsubr
            -121 121 return
          </CharString>
          <CharString index="110" raw="1">
            f14c0a0b   
          </CharString>
          <CharString index="111">
            -647 140 return
          </CharString>
          <CharString index="112">
            -70 callsubr
            endchar
          </CharString>
          <CharString index="113">
            rmoveto
            40 33 32 41 41 -33 33 -40 -40 -34 -33 -41 -41 34 -32 40 hvcurveto
            return
          </CharString>
          <CharString index="114">
            80 -10 100 557 -20 return
          </CharString>
          <CharString index="115">
            -25 122 488 vlineto
            return
          </CharString>
          <CharString index="116">
            114 hstemhm
            -40 callsubr
            return
          </CharString>
          <CharString index="117">
            -22 callsubr
            hstem
            return
          </CharString>
          <CharString index="118">
            53 callsubr
            -63 callsubr
            hintmask 10101100
            return
          </CharString>
          <CharString index="119">
            180 15 callsubr
            return
          </CharString>
          <CharString index="120">
            134 488 -134 hlineto
            return
          </CharString>
          <CharString index="121">
            -10 84 341 83 return
          </CharString>
          <CharString index="122">
            -109 109 hstemhm
            return
          </CharString>
          <CharString index="123">
            102 vstem
            167 -19 callsubr
            -115 hlineto
            12 -207 rlineto
            90 hlineto
            return
          </CharString>
          <CharString index="124">
            -96 216 258 22 callsubr
            101 133 return
          </CharString>
          <CharString index="125">
            hhcurveto
            21 -91 callsubr
            244 -84 callsubr
            return
          </CharString>
          <CharString index="126">
            -92 -13 callsubr
            -91 134 return
          </CharString>
          <CharString index="127">
            -2 callsubr
            77 102 35 callsubr
            return
          </CharString>
          <CharString index="128">
            hlineto
            -40 -22 -20 -46 hvcurveto
            -122 vlineto
            -46 22 -20 40 vhcurveto
            return
          </CharString>
          <CharString index="129">
            193 -95 95 hstemhm
            50 callsubr
            return
          </CharString>
          <CharString index="130">
            -138 -21 149 96 316 return
          </CharString>
          <CharString index="131">
            97 25 callsubr
            return
          </CharString>
          <CharString index="132">
            -10 33 callsubr
            return
          </CharString>
          <CharString index="133">
            38 -134 -54 vlineto
            return
          </CharString>
          <CharString index="134">
            -134 -382 return
          </CharString>
          <CharString index="135">
            -99 callsubr
            103 -105 callsubr
            return
          </CharString>
          <CharString index="136">
            rmoveto
            -6 -4 -4 -5 vhcurveto
            -43 hlineto
            -5 -4 4 6 hvcurveto
            return
          </CharString>
          <CharString index="137">
            -86 callsubr
            -106 -97 callsubr
            return
          </CharString>
          <CharString index="138">
            rmoveto
            -119 hlineto
            -43 -204 rlineto
            92 hlineto
            endchar
          </CharString>
          <CharString index="139">
            rmoveto
            27 20 14 36 52 vvcurveto
            return
          </CharString>
          <CharString index="140">
            96 476 95 return
          </CharString>
          <CharString index="141">
            21 44 callsubr
            return
          </CharString>
          <CharString index="142">
            hstem
            63 134 vstem
            return
          </CharString>
          <CharString index="143">
            -21 -35 15 return
          </CharString>
          <CharString index="144">
            525 vlineto
            return
          </CharString>
          <CharString index="145">
            49 140 return
          </CharString>
          <CharString index="146">
            hstemhm
            59 144 -132 117 hintmask 11010000
            return
          </CharString>
          <CharString index="147">
            -20 -63 callsubr
            hintmask 11101100
            return
          </CharString>
          <CharString index="148">
            -106 rmoveto
            147 hlineto
            hintmask 01101100
            47 96 rlineto
            return
          </CharString>
          <CharString index="149">
            379 rlineto
            -130 hlineto
            107 -488 rlineto
            return
          </CharString>
          <CharString index="150">
            -33 -28 -8 -16 -21 hvcurveto
            173 -134 return
          </CharString>
          <CharString index="151">
            -29 callsubr
            hstemhm
            -40 callsubr
            return
          </CharString>
          <CharString index="152">
            vlineto
            6 4 4 5 vhcurveto
            return
          </CharString>
          <CharString index="153">
            109 -109 180 return
          </CharString>
          <CharString index="154">
            hlineto
            -19 -15 16 19 hvcurveto
            return
          </CharString>
          <CharString index="155">
            hlineto
            -37 -21 -19 -43 hvcurveto
            return
          </CharString>
          <CharString index="156">
            -20 hstem
            192 113 vstem
            441 return
          </CharString>
          <CharString index="157">
            50 140 return
          </CharString>
          <CharString index="158" raw="1">
            f54c0a0b   
          </CharString>
          <CharString index="159">
            140 vstem
            190 254 rmoveto
            return
          </CharString>
          <CharString index="160">
            -96 202 104 202 -96 96 return
          </CharString>
          <CharString index="161">
            hlineto
            134 647 rlineto
            endchar
          </CharString>
          <CharString index="162">
            hlineto
            -98 callsubr
            endchar
          </CharString>
          <CharString index="163">
            21 -21 557 100 return
          </CharString>
          <CharString index="164">
            -122 -488 return
          </CharString>
          <CharString index="165">
            rlineto
            -136 hlineto
            return
          </CharString>
          <CharString index="166">
            -10 96 -96 return
          </CharString>
          <CharString index="167">
            116 vlineto
            return
          </CharString>
        <CharString name=".notdef">
          -193 endchar
        </CharString>
        <CharString name="A">
          -49 callsubr
          -51 callsubr
          -95 callsubr
          endchar
        </CharString>
        <CharString name="AE">
          226 0 116 130 108 -91 103 167 114 hstemhm
          -44 callsubr
          hintmask 11011100
          431 533 rmoveto
          152 114 -409 -97 callsubr
          -515 140 246 101 -246 292 116 -152 vlineto
          hintmask 10111100
          147 142 103 -142 vlineto
          -222 177 rmoveto
          63 hlineto
          1 hlineto
          18 hlineto
          hintmask 11011100
          -189 -101 169 vlineto
          -93 callsubr
          endchar
        </CharString>
        <CharString name="Aacute">
          -58 callsubr
          79 475 -67 callsubr
        </CharString>
        <CharString name="Acircumflex">
          -49 callsubr
          44 106 -51 callsubr
          -95 callsubr
          107 376 -77 callsubr
        </CharString>
        <CharString name="Adieresis">
          -49 callsubr
          38 114 hstemhm
          50 callsubr
          -88 -13 callsubr
          -87 140 hintmask 11111001
          -95 callsubr
          hintmask 11110110
          -75 427 -106 callsubr
        </CharString>
        <CharString name="Agrave">
          -58 callsubr
          -49 373 -60 callsubr
        </CharString>
        <CharString name="Aring">
          -49 callsubr
          41 163 hstemhm
          50 callsubr
          -52 71 64 70 -52 140 hintmask 11111001
          -89 callsubr
          hintmask 11110101
          -93 callsubr
          63 -105 callsubr
          -217 vlineto
          hintmask 11111010
          -18 536 rmoveto
          hintmask 11110110
          -54 callsubr
        </CharString>
        <CharString name="Atilde">
          -49 callsubr
          31 80 -80 112 hstemhm
          -44 callsubr
          hintmask 11110110
          -95 callsubr
          1 363 rmoveto
          -74 callsubr
          hintmask 11101110
          -79 callsubr
        </CharString>
        <CharString name="B">
          90 0 96 185 98 173 95 hstem
          50 callsubr
          93 140 vstem
          366 354 rmoveto
          37 14 20 31 57 vvcurveto
          59 -84 callsubr
          -249 -647 257 -91 callsubr
          60 callsubr
          58 -23 33 -42 15 vhcurveto
          -102 198 rmoveto
          -96 callsubr
          -133 vlineto
          -98 callsubr
          -74 173 hlineto
          101 -436 rmoveto
          -98 callsubr
          -82 185 82 -105 callsubr
          endchar
        </CharString>
        <CharString name="C">
          71 -10 96 17 callsubr
          hintmask 10011100
          291 106 rmoveto
          -85 callsubr
          hintmask 10101100
          -50 callsubr
          126 -91 callsubr
          hintmask 01101100
          84 -133 vlineto
          endchar
        </CharString>
        <CharString name="Ccedilla">
          71 -106 192 17 callsubr
          hintmask 10101100
          102 41 callsubr
          4 -91 callsubr
          84 -133 -100 vlineto
          hintmask 10011100
          -85 callsubr
          hintmask 01101100
          -50 callsubr
          20 hlineto
          endchar
        </CharString>
        <CharString name="D">
          98 0 96 456 95 -51 callsubr
          307 -19 callsubr
          -257 -647 -17 callsubr
          456 82 -105 callsubr
          endchar
        </CharString>
        <CharString name="E">
          -35 callsubr
          -66 callsubr
          endchar
        </CharString>
        <CharString name="Eacute">
          -43 callsubr
          -5 684 -67 callsubr
        </CharString>
        <CharString name="Ecircumflex">
          -35 callsubr
          54 106 -66 callsubr
          7 585 -77 callsubr
        </CharString>
        <CharString name="Edieresis">
          -35 callsubr
          48 114 hstemhm
          50 121 -121 140 29 114 hintmask 11110110
          -69 callsubr
          hintmask 11111010
          -174 636 -106 callsubr
        </CharString>
        <CharString name="Egrave">
          -43 callsubr
          -161 582 -60 callsubr
        </CharString>
        <CharString name="Eth">
          116 0 96 184 87 185 95 hstem
          73 140 101 140 vstem
          330 -19 callsubr
          -257 -280 -63 -87 63 -280 -17 callsubr
          184 50 87 -50 185 82 -105 callsubr
          endchar
        </CharString>
        <CharString name="F">
          -13 21 -21 254 117 155 121 hstem
          50 52 callsubr
          142 117 -142 155 152 121 -292 4 callsubr
          hlineto
          endchar
        </CharString>
        <CharString name="G">
          64 -10 96 378 22 callsubr
          49 185 -133 133 hintmask 11011000
          239 257 rmoveto
          hintmask 10110100
          52 -151 hlineto
          -85 callsubr
          hintmask 11010100
          -50 callsubr
          126 -91 callsubr
          238 vlineto
          hintmask 11011000
          -185 hlineto
          endchar
        </CharString>
        <CharString name="H">
          104 21 -21 254 122 271 -20 hstem
          50 callsubr
          111 52 callsubr
          111 -254 140 647 -140 -271 -111 271 -21 callsubr
          hlineto
          endchar
        </CharString>
        <CharString name="I">
          -3 callsubr
          -41 callsubr
          endchar
        </CharString>
        <CharString name="Iacute">
          -18 callsubr
          71 800 -67 callsubr
        </CharString>
        <CharString name="Icircumflex">
          -3 callsubr
          74 106 -41 callsubr
          88 701 -77 callsubr
        </CharString>
        <CharString name="Idieresis">
          -3 callsubr
          68 114 hstemhm
          -18 114 -46 140 -46 114 hintmask 11101000
          -36 callsubr
          hintmask 11110100
          -94 752 -106 callsubr
        </CharString>
        <CharString name="Igrave">
          -18 callsubr
          -80 698 -60 callsubr
        </CharString>
        <CharString name="J">
          21 59 callsubr
          213 444 -20 hstemhm
          11 133 91 140 hintmask 10111000
          235 -19 callsubr
          -541 vlineto
          -98 callsubr
          -53 -102 callsubr
          hintmask 01111000
          97 -133 -81 -99 callsubr
          116 -91 callsubr
          37 callsubr
          endchar
        </CharString>
        <CharString name="K">
          85 10 callsubr
          50 callsubr
          vstem
          453 -19 callsubr
          -128 hlineto
          -101 -271 rlineto
          -34 271 -21 callsubr
          256 45 hlineto
          96 -256 rlineto
          143 hlineto
          -131 350 rlineto
          endchar
        </CharString>
        <CharString name="L">
          -28 0 118 529 -20 hstem
          50 callsubr
          vstem
          190 118 rmoveto
          529 -140 -647 293 118 vlineto
          endchar
        </CharString>
        <CharString name="M">
          312 56 callsubr
          hstem
          38 callsubr
          92 140 92 140 cntrmask 00111000
          189 hmoveto
          -42 callsubr
          140 -42 callsubr
          140 -52 callsubr
          -74 hlineto
          -48 -36 -15 -33 -20 hvcurveto
          33 36 callsubr
          -48 hhcurveto
          -74 -97 callsubr
          -525 vlineto
          endchar
        </CharString>
        <CharString name="N">
          78 56 callsubr
          hstem
          38 callsubr
          92 140 vstem
          -34 callsubr
          endchar
        </CharString>
        <CharString name="Ntilde">
          78 56 callsubr
          31 80 -80 112 hstemhm
          38 callsubr
          92 140 hintmask 11101100
          -34 callsubr
          1 688 -53 callsubr
        </CharString>
        <CharString name="O">
          24 callsubr
          -88 callsubr
          endchar
        </CharString>
        <CharString name="Oacute">
          -59 callsubr
          79 258 -67 callsubr
        </CharString>
        <CharString name="Ocircumflex">
          24 callsubr
          44 106 -88 callsubr
          107 159 -77 callsubr
        </CharString>
        <CharString name="Odieresis">
          24 callsubr
          38 114 hstemhm
          50 callsubr
          -88 -13 callsubr
          -87 140 hintmask 11110010
          -100 callsubr
          hintmask 11101100
          -75 210 -106 callsubr
        </CharString>
        <CharString name="Ograve">
          -59 callsubr
          -49 156 -60 callsubr
        </CharString>
        <CharString name="Oslash">
          97 -54 -21 64 33 callsubr
          64 -20 -51 callsubr
          398 625 rmoveto
          28 70 -61 25 -27 -66 rlineto
          1 -10 -10 1 -11 hhcurveto
          -37 callsubr
          -403 vlineto
          -46 11 -34 22 -21 vhcurveto
          -28 -70 61 -25 26 67 rlineto
          -2 10 11 -1 11 hhcurveto
          133 -91 callsubr
          403 vlineto
          47 -12 33 -21 21 vhcurveto
          -208 -84 rmoveto
          -93 callsubr
          63 -105 callsubr
          -5 vlineto
          -101 -250 rlineto
          82 -201 rmoveto
          -63 -102 callsubr
          4 vlineto
          101 251 rlineto
          -255 vlineto
          -98 callsubr
          endchar
        </CharString>
        <CharString name="Otilde">
          24 callsubr
          31 80 -80 112 hstemhm
          -44 callsubr
          hintmask 11101100
          -100 callsubr
          146 vmoveto
          -74 callsubr
          hintmask 11011100
          -79 callsubr
        </CharString>
        <CharString name="P">
          59 21 -21 254 96 201 96 hstem
          38 callsubr
          97 140 vstem
          302 -19 callsubr
          -253 4 callsubr
          254 -28 callsubr
        </CharString>
        <CharString name="Q">
          88 -152 -21 184 -21 572 95 hstemhm
          50 callsubr
          -1 116 -116 163 -61 140 hintmask 11110010
          -57 callsubr
          -403 -99 callsubr
          hintmask 11101000
          15 -67 hlineto
          -44 33 -52 71 vhcurveto
          hintmask 11100100
          59 98 -32 hlineto
          hintmask 11101000
          -8 -7 6 9 hvcurveto
          50 2 vlineto
          hintmask 11110010
          -83 callsubr
          403 -84 callsubr
          -117 -115 rmoveto
          -93 callsubr
          63 -105 callsubr
          -436 vlineto
          -98 callsubr
          -63 -102 callsubr
          endchar
        </CharString>
        <CharString name="R">
          76 21 -21 265 98 189 95 hstem
          50 callsubr
          86 140 vstem
          190 265 rmoveto
          67 hlineto
          13 6 -9 -11 hvcurveto
          -245 140 256 vlineto
          33 -8 34 -42 15 vhcurveto
          37 14 20 31 57 vvcurveto
          75 -84 callsubr
          -249 4 callsubr
          hlineto
          552 vmoveto
          74 -105 callsubr
          -149 vlineto
          -98 callsubr
          -74 hlineto
          endchar
        </CharString>
        <CharString name="S">
          71 -10 107 -107 199 75 129 84 12 callsubr
          50 133 100 126 hintmask 10110110
          409 477 rmoveto
          48 -84 callsubr
          -111 -97 callsubr
          -129 -99 callsubr
          90 -105 callsubr
          -127 vlineto
          -98 callsubr
          -62 -102 callsubr
          hintmask 01101110
          72 -133 -67 -16 callsubr
          139 vlineto
          93 -45 38 -79 1 vhcurveto
          -90 -102 callsubr
          115 vlineto
          -103 callsubr
          hintmask 10110110
          -51 vlineto
          endchar
        </CharString>
        <CharString name="T">
          -10 21 -21 528 119 hstem
          118 140 vstem
          13 528 rmoveto
          105 -528 140 528 105 119 -350 hlineto
          endchar
        </CharString>
        <CharString name="Thorn">
          69 21 -21 116 96 201 96 138 -20 hstem
          38 callsubr
          97 140 vstem
          302 509 rmoveto
          -113 138 -21 callsubr
          116 -28 callsubr
        </CharString>
        <CharString name="U">
          7 callsubr
          -75 callsubr
          endchar
        </CharString>
        <CharString name="Uacute">
          -55 callsubr
          -42 153 -67 callsubr
        </CharString>
        <CharString name="Ucircumflex">
          7 callsubr
          74 106 -75 callsubr
          -28 54 -77 callsubr
        </CharString>
        <CharString name="Udieresis">
          7 callsubr
          68 114 hstemhm
          38 callsubr
          -92 -13 callsubr
          -92 140 hintmask 11110010
          -78 callsubr
          hintmask 11101100
          -210 105 -106 callsubr
        </CharString>
        <CharString name="Ugrave">
          -55 callsubr
          -199 51 -60 callsubr
        </CharString>
        <CharString name="V">
          78 10 callsubr
          311 -19 callsubr
          -79 -472 -79 472 58 callsubr
          134 -647 rlineto
          161 54 callsubr
        </CharString>
        <CharString name="W">
          320 10 callsubr
          289 -19 callsubr
          -75 -487 -56 487 58 callsubr
          105 -647 rlineto
          159 hlineto
          65 397 65 -397 rlineto
          159 hlineto
          105 647 58 callsubr
          -56 -487 -75 487 rlineto
          endchar
        </CharString>
        <CharString name="X">
          64 10 callsubr
          425 -19 callsubr
          -137 hlineto
          -64 -209 -64 209 58 callsubr
          101 -323 -116 -324 rlineto
          147 hlineto
          68 226 68 -226 rlineto
          146 hlineto
          -116 324 rlineto
          endchar
        </CharString>
        <CharString name="Y">
          48 21 -21 647 -20 -26 callsubr
          endchar
        </CharString>
        <CharString name="Yacute">
          48 -22 callsubr
          71 102 -26 callsubr
          61 564 -67 callsubr
        </CharString>
        <CharString name="Z">
          10 0 104 438 105 hstem
          371 556 rmoveto
          91 -333 -105 188 vlineto
          -194 -456 rlineto
          -86 339 104 -193 vlineto
          endchar
        </CharString>
        <CharString name="a">
          -10 96 -65 -21 402 96 -10 -20 -31 callsubr
          hintmask 10011010
          -23 callsubr
          hintmask 10101010
          31 36 callsubr
          -47 hhcurveto
          -65 callsubr
          21 hlineto
          47 35 15 31 21 hvcurveto
          hintmask 01011010
          -14 callsubr
          hintmask 10101100
          -81 callsubr
          endchar
        </CharString>
        <CharString name="aacute">
          -38 callsubr
          77 102 -82 callsubr
          91 265 -67 callsubr
        </CharString>
        <CharString name="acircumflex">
          -38 callsubr
          73 106 -82 callsubr
          111 159 -77 callsubr
        </CharString>
        <CharString name="acute">
          -100 483 102 hstem
          258 585 -67 callsubr
        </CharString>
        <CharString name="adieresis">
          -38 callsubr
          75 9 callsubr
          -90 -13 callsubr
          -93 134 -113 113 hintmask 1001110001000000
          -23 callsubr
          hintmask 1010110001000000
          31 36 callsubr
          -47 hhcurveto
          -65 callsubr
          21 hlineto
          47 35 15 31 21 hvcurveto
          hintmask 0101110001000000
          -14 callsubr
          hintmask 1010110010000000
          -81 callsubr
          hintmask 1010101100000000
          -69 218 -106 callsubr
        </CharString>
        <CharString name="ae">
          290 59 callsubr
          170 26 92 -70 88 32 170 -96 96 hstemhm
          53 122 97 132 -25 callsubr
          hintmask 1001101110000000
          631 208 rmoveto
          158 -84 callsubr
          -66 hlineto
          -47 -35 -14 -32 -21 hvcurveto
          32 -20 -35 14 -48 hhcurveto
          -58 -97 callsubr
          -38 122 54 vlineto
          hintmask 1010011110000000
          -93 callsubr
          59 -105 callsubr
          -104 -103 vlineto
          -87 callsubr
          -24 -99 callsubr
          66 hlineto
          48 35 14 32 20 hvcurveto
          -32 21 35 -14 47 hhcurveto
          66 -91 callsubr
          hintmask 0110101110000000
          38 -124 -54 vlineto
          hintmask 1001101110000000
          -98 callsubr
          -65 -102 callsubr
          102 vlineto
          178 vmoveto
          -103 callsubr
          -90 -93 vlineto
          -151 -214 rmoveto
          -55 -102 callsubr
          64 vlineto
          hintmask 1010101110000000
          -93 callsubr
          74 -84 55 callsubr
        </CharString>
        <CharString name="agrave">
          -38 callsubr
          77 102 -82 callsubr
          -50 163 -60 callsubr
        </CharString>
        <CharString name="ampersand">
          69 -10 106 159 108 95 160 15 callsubr
          46 130 111 116 hintmask 11011100
          93 312 rmoveto
          -30 -21 -17 -36 -56 vvcurveto
          -77 -99 callsubr
          109 -91 callsubr
          133 39 108 -247 vlineto
          -94 callsubr
          106 vlineto
          -93 callsubr
          67 -105 callsubr
          hintmask 11101100
          -31 125 28 vlineto
          30 callsubr
          -66 vlineto
          -52 14 -36 27 -20 vhcurveto
          175 -216 rmoveto
          -79 -102 callsubr
          119 vlineto
          -93 callsubr
          98 -139 55 callsubr
        </CharString>
        <CharString name="aring">
          -38 callsubr
          66 163 -41 -20 hstemhm
          -40 callsubr
          -59 71 64 70 -53 134 -113 113 hintmask 1001101000100000
          -23 callsubr
          hintmask 1010101000100000
          31 36 callsubr
          -47 hhcurveto
          -65 callsubr
          21 hlineto
          47 35 15 31 21 hvcurveto
          hintmask 0101101000100000
          -14 callsubr
          hintmask 1010101001000000
          -81 callsubr
          hintmask 1010100110000000
          -17 315 rmoveto
          -61 callsubr
          hintmask 1010011010000000
          -11 callsubr
        </CharString>
        <CharString name="asciicircum">
          -2 438 -21 230 -20 hstem
          358 417 rmoveto
          -128 230 rlineto
          -72 hlineto
          -128 -230 rlineto
          81 hlineto
          83 144 81 -144 rlineto
          endchar
        </CharString>
        <CharString name="asterisk">
          1 336 -21 332 -20 hstem
          166 69 vstem
          364 530 rmoveto
          -38 67 -94 -63 7 113 rlineto
          -76 hlineto
          7 -112 -93 62 -39 -67 100 -50 -100 -49 39 -67 93 61 -7 -110 rlineto
          76 hlineto
          -7 111 94 -62 38 67 -100 49 rlineto
          endchar
        </CharString>
        <CharString name="at">
          329 -125 62 44 66 277 56 67 62 hstem
          65 80 66 84 131 84 71 77 vstem
          549 509 rmoveto
          -375 hlineto
          -74 -35 -37 -80 hvcurveto
          -400 vlineto
          -80 35 -37 74 vhcurveto
          430 62 -425 47 callsubr
          440 vlineto
          19 15 16 19 vhcurveto
          368 hlineto
          18 16 -16 -19 hvcurveto
          -345 vlineto
          -19 -16 -16 -18 vhcurveto
          -3 47 callsubr
          313 -63 -43 vlineto
          53 -26 -37 0 -42 hhcurveto
          -22 hlineto
          -74 -35 -37 -80 hvcurveto
          -175 vlineto
          -80 35 -37 74 vhcurveto
          33 hlineto
          49 33 20 37 14 hvcurveto
          -41 17 31 -16 47 hhcurveto
          5 hlineto
          74 35 37 80 hvcurveto
          294 vlineto
          80 -35 37 -74 vhcurveto
          -123 -427 rmoveto
          -19 -16 -16 -18 vhcurveto
          -63 47 callsubr
          207 vlineto
          19 15 16 19 vhcurveto
          63 hlineto
          18 16 -16 -19 hvcurveto
          endchar
        </CharString>
        <CharString name="atilde">
          -38 callsubr
          67 80 -80 112 -31 callsubr
          hintmask 1001101010000000
          -23 callsubr
          hintmask 1010101010000000
          31 36 callsubr
          -47 hhcurveto
          -65 callsubr
          21 hlineto
          47 35 15 31 21 hvcurveto
          hintmask 0101101010000000
          -14 callsubr
          hintmask 1010101100000000
          -81 callsubr
          7 153 rmoveto
          -74 callsubr
          hintmask 1010011100000000
          -79 callsubr
        </CharString>
        <CharString name="b">
          0 86 -75 -21 412 96 149 -20 -27 callsubr
          261 498 rmoveto
          43 callsubr
          -647 113 36 vlineto
          hintmask 01111100
          -31 21 35 -15 47 18 callsubr
          -103 -116 rmoveto
          -103 callsubr
          -276 vlineto
          hintmask 10111100
          -107 callsubr
          endchar
        </CharString>
        <CharString name="backslash">
          -82 -51 -21 746 -20 hstem
          -42 674 rmoveto
          283 -746 rlineto
          107 hlineto
          -283 746 rlineto
          endchar
        </CharString>
        <CharString name="bar">
          -122 -52 -21 747 -20 hstem
          80 103 vstem
          80 -73 rmoveto
          103 747 -103 hlineto
          endchar
        </CharString>
        <CharString name="braceleft">
          -129 -67 -21 779 -20 hstemhm
          43 139 -103 103 -103 163 hintmask 11001000
          201 596 rmoveto
          41 95 -39 -97 callsubr
          -186 vlineto
          -98 callsubr
          hintmask 11100000
          -17 -65 hlineto
          -27 17 vlineto
          hintmask 11010000
          -96 callsubr
          -197 -99 callsubr
          hintmask 11001000
          39 101 -41 hlineto
          hintmask 11100000
          -94 callsubr
          161 vlineto
          56 -13 37 -28 20 vhcurveto
          28 20 13 37 56 vvcurveto
          156 vlineto
          -93 callsubr
          endchar
        </CharString>
        <CharString name="braceright">
          -124 -67 -21 779 -20 hstemhm
          43 163 -103 103 -103 139 hintmask 11010000
          84 596 rmoveto
          -96 callsubr
          -156 vlineto
          -56 13 -37 28 -20 vhcurveto
          -28 -20 -13 -37 -56 vvcurveto
          -161 vlineto
          -98 callsubr
          hintmask 11100000
          -41 -101 39 -91 callsubr
          197 vlineto
          -93 callsubr
          hintmask 11001000
          17 27 hlineto
          65 -17 vlineto
          hintmask 11100000
          -94 callsubr
          186 -84 callsubr
          -39 -95 hlineto
          endchar
        </CharString>
        <CharString name="bracketleft">
          -105 -81 98 576 98 hstemhm
          47 96 -96 187 hintmask 11010000
          234 593 rmoveto
          98 -187 -772 187 98 vlineto
          hintmask 11100000
          -91 576 hlineto
          endchar
        </CharString>
        <CharString name="bracketright">
          -93 -81 98 576 98 hstemhm
          47 187 -96 96 hintmask 11010000
          138 593 rmoveto
          -576 vlineto
          hintmask 11100000
          -91 -98 187 772 -187 -98 hlineto
          endchar
        </CharString>
        <CharString name="brokenbar">
          -60 -175 -21 911 -20 hstem
          100 123 vstem
          100 301 rmoveto
          123 414 -123 hlineto
          -911 vmoveto
          123 414 -123 hlineto
          endchar
        </CharString>
        <CharString name="c">
          59 -10 96 11 callsubr
          406 296 rmoveto
          70 -84 callsubr
          -92 callsubr
          hintmask 01101100
          -24 callsubr
          hintmask 10101100
          -86 vlineto
          endchar
        </CharString>
        <CharString name="ccedilla">
          59 -106 192 11 callsubr
          89 41 callsubr
          78 1 45 39 92 vvcurveto
          -24 callsubr
          hintmask 01101100
          -86 134 70 -84 callsubr
          -113 -97 callsubr
          -244 -99 callsubr
          12 hlineto
          endchar
        </CharString>
        <CharString name="cedilla">
          -69 -106 102 hstem
          61 -106 rmoveto
          147 hlineto
          50 102 rlineto
          -99 hlineto
          endchar
        </CharString>
        <CharString name="cent">
          69 -78 -21 89 96 53 callsubr
          70 -20 hstemhm
          -40 callsubr
          24 45 24 134 cntrmask 0000001110000000
          hintmask 1101011110000000
          406 296 rmoveto
          70 -84 callsubr
          -34 70 -45 -70 -34 -97 callsubr
          -244 -99 callsubr
          34 -89 45 89 34 -91 callsubr
          hintmask 1011011110000000
          70 -134 -86 vlineto
          hintmask 1100111110000000
          -107 callsubr
          276 vlineto
          -103 callsubr
          hintmask 1101011110000000
          -86 vlineto
          endchar
        </CharString>
        <CharString name="circumflex">
          1 486 106 hstem
          352 486 -77 callsubr
        </CharString>
        <CharString name="colon">
          -133 -10 144 201 -6 callsubr
          134 rmoveto
          -70 callsubr
          345 vmoveto
          5 callsubr
        </CharString>
        <CharString name="comma">
          -171 -145 204 hstem
          204 59 31 callsubr
        </CharString>
        <CharString name="copyright">
          224 0 71 74 139 71 137 76 71 hstem
          59 71 54 93 63 93 51 71 vstem
          433 355 rmoveto
          49 vlineto
          63 -32 25 -55 vhcurveto
          -78 hlineto
          -54 -30 -25 -63 hvcurveto
          -168 vlineto
          -63 30 -28 54 vhcurveto
          78 hlineto
          55 32 28 63 hvcurveto
          48 -93 -60 vlineto
          -6 -6 -6 -7 vhcurveto
          -37 hlineto
          -9 -4 6 6 hvcurveto
          191 vlineto
          7 4 6 9 vhcurveto
          37 hlineto
          7 6 -6 -7 hvcurveto
          -60 vlineto
          157 -355 rmoveto
          32 26 26 32 hvcurveto
          523 vlineto
          32 -26 26 -32 vhcurveto
          -380 hlineto
          -32 -26 -26 -32 hvcurveto
          -523 vlineto
          -32 26 -26 32 vhcurveto
          13 568 rmoveto
          354 -497 -354 hlineto
          endchar
        </CharString>
        <CharString name="currency">
          292 53 -21 571 -20 hstem
          630 121 rmoveto
          -89 88 37 67 0 82 -37 67 rlinecurve
          89 89 -90 89 -88 -88 -67 37 -82 0 -67 -37 rlinecurve
          -88 88 -90 -89 89 -89 -37 -67 0 -82 37 -67 rlinecurve
          -89 -88 90 -89 88 88 67 -37 82 0 67 37 rlinecurve
          88 -88 rlineto
          -276 205 rmoveto
          -44 45 0 71 44 44 44 44 72 0 44 -44 44 -44 0 -71 -44 -45 -44 -44 -72 0 -44 44 rrcurveto
          endchar
        </CharString>
        <CharString name="d">
          -10 96 -65 -21 402 96 149 -20 -27 callsubr
          190 498 rmoveto
          -65 callsubr
          21 hlineto
          47 35 15 31 21 hvcurveto
          hintmask 01111100
          -36 113 647 -134 -173 vlineto
          16 -21 -28 8 -33 hhcurveto
          82 -392 rmoveto
          hintmask 10111100
          -107 callsubr
          276 vlineto
          -103 callsubr
          endchar
        </CharString>
        <CharString name="daggerdbl">
          24 -111 -21 173 103 216 102 174 -20 hstem
          139 119 vstem
          362 360 rmoveto
          102 -104 174 -119 -174 -104 -102 104 -216 -104 -103 104 -173 119 173 104 103 -104 216 vlineto
          endchar
        </CharString>
        <CharString name="degree">
          -79 392 44 179 43 hstem
          46 71 78 71 vstem
          266 589 rmoveto
          48 -24 21 -41 vhcurveto
          -90 hlineto
          -41 -24 -21 -48 hvcurveto
          -128 vlineto
          -48 24 -21 41 vhcurveto
          90 hlineto
          41 24 21 48 hvcurveto
          -71 -15 rmoveto
          -5 -4 -5 -6 vhcurveto
          -58 hlineto
          -6 -4 5 5 hvcurveto
          158 vlineto
          6 4 5 6 vhcurveto
          58 hlineto
          6 4 -5 -6 hvcurveto
          endchar
        </CharString>
        <CharString name="dieresis">
          -14 480 114 hstem
          49 -13 callsubr
          vstem
          163 537 -106 callsubr
        </CharString>
        <CharString name="divide">
          78 18 144 35 107 35 144 hstem
          161 144 cntrmask 11100000
          232 162 rmoveto
          -70 callsubr
          177 vmoveto
          -48 callsubr
          -47 callsubr
          hvcurveto
          -194 -35 rmoveto
          -107 389 107 vlineto
          endchar
        </CharString>
        <CharString name="dollar">
          79 -76 -21 87 95 -95 199 83 112 93 180 -96 96 52 -20 hstemhm
          50 119 45 37 47 111 hintmask 1101011111000000
          292 384 rmoveto
          -41 177 21 -105 callsubr
          hintmask 1101101111000000
          -64 118 48 -84 callsubr
          -34 52 -37 -52 -40 -97 callsubr
          -121 -99 callsubr
          40 -187 -27 -102 callsubr
          hintmask 1011011111000000
          84 -118 -67 -99 callsubr
          40 -87 37 87 41 -91 callsubr
          130 vlineto
          93 -45 38 -79 1 vhcurveto
          -104 hmoveto
          -94 callsubr
          137 vlineto
          -93 callsubr
          26 -177 hlineto
          84 -279 rmoveto
          hintmask 1101101111000000
          -98 callsubr
          -28 187 28 -105 callsubr
          endchar
        </CharString>
        <CharString name="e">
          -32 callsubr
          -27 callsubr
          -72 callsubr
          hintmask 01111100
          26 callsubr
          hintmask 10111100
          -107 callsubr
          102 227 158 -84 callsubr
          -103 -202 rmoveto
          90 vlineto
          -103 callsubr
          -90 vlineto
          endchar
        </CharString>
        <CharString name="eacute">
          -68 callsubr
          86 351 -67 callsubr
        </CharString>
        <CharString name="ecircumflex">
          -32 callsubr
          43 106 -80 callsubr
          111 245 -77 callsubr
        </CharString>
        <CharString name="edieresis">
          -32 callsubr
          45 9 callsubr
          19 callsubr
          hintmask 1011110010000000
          -72 callsubr
          hintmask 0111110010000000
          26 callsubr
          hintmask 1011110010000000
          -107 callsubr
          102 227 158 -84 callsubr
          -103 -202 rmoveto
          90 vlineto
          -103 callsubr
          -90 vlineto
          hintmask 1011101100000000
          -71 304 -106 callsubr
        </CharString>
        <CharString name="egrave">
          -68 callsubr
          -58 249 -60 callsubr
        </CharString>
        <CharString name="eight">
          82 -10 109 173 111 162 112 hstem
          59 125 105 124 vstem
          372 331 32 callsubr
          86 vlineto
          30 callsubr
          -86 vlineto
          -52 14 -36 27 -20 vhcurveto
          -30 -21 -17 -36 -56 vvcurveto
          -96 -5 callsubr
          -188 194 rmoveto
          -93 callsubr
          67 -105 callsubr
          -122 vlineto
          -98 callsubr
          -67 -102 callsubr
          111 -284 rmoveto
          -98 callsubr
          -79 -102 callsubr
          133 vlineto
          -93 callsubr
          79 -105 callsubr
          endchar
        </CharString>
        <CharString name="equal">
          90 143 107 85 107 hstem
          423 442 rmoveto
          -367 -107 367 hlineto
          -85 vmoveto
          -367 -107 367 hlineto
          endchar
        </CharString>
        <CharString name="eth">
          68 -10 84 310 83 220 -20 -45 callsubr
          390 413 rmoveto
          -6 12 -8 9 -127 153 39 29 rcurveline
          -33 46 -42 -31 -45 56 -78 -61 43 -53 -57 -42 33 -45 59 43 51 -62 rlineto
          -50 -97 callsubr
          -213 -99 callsubr
          -64 callsubr
          213 vlineto
          32 -5 25 -11 21 vhcurveto
          -118 -319 rmoveto
          -107 callsubr
          270 vlineto
          -103 callsubr
          endchar
        </CharString>
        <CharString name="exclam">
          -129 -10 144 513 -20 39 callsubr
          197 -19 callsubr
          -134 hlineto
          17 -457 rlineto
          100 hlineto
          -50 -56 rmoveto
          hintmask 11100000
          5 callsubr
        </CharString>
        <CharString name="exclamdown">
          -133 -136 -21 513 144 39 callsubr
          180 300 rmoveto
          -100 hlineto
          -17 -457 rlineto
          134 hlineto
          -67 513 rmoveto
          hintmask 11100000
          41 32 32 41 39 -32 32 -41 -39 -32 -32 -39 -41 32 -32 39 hvcurveto
          endchar
        </CharString>
        <CharString name="f">
          -110 21 -21 387 101 77 92 hstemhm
          -40 callsubr
          -134 218 hintmask 11101000
          223 565 rmoveto
          40 92 -94 -97 callsubr
          -525 vlineto
          hintmask 11110000
          134 387 hlineto
          hintmask 11101000
          84 101 hlineto
          hintmask 11110000
          -84 29 hlineto
          39 17 9 27 vhcurveto
          endchar
        </CharString>
        <CharString name="five">
          76 -10 46 callsubr
          112 123 135 107 hstemhm
          45 128 -128 140 97 129 hintmask 10111010
          173 540 rmoveto
          212 107 -340 -233 hlineto
          -90 callsubr
          94 -105 callsubr
          -143 vlineto
          -98 callsubr
          -59 hlineto
          hintmask 01110110
          -94 callsubr
          51 -133 -48 -99 callsubr
          111 -91 callsubr
          151 -84 callsubr
          -95 hlineto
          hintmask 10111010
          -94 callsubr
          endchar
        </CharString>
        <CharString name="four">
          80 21 -21 255 118 274 -20 hstem
          51 124 117 125 vstem
          292 -19 callsubr
          -254 -10 callsubr
          254 -124 -260 -99 callsubr
          50 hlineto
          67 -255 125 647 hlineto
          endchar
        </CharString>
        <CharString name="g">
          -169 96 -96 148 44 96 283 86 10 -20 2 callsubr
          -25 callsubr
          hintmask 10110101
          406 -1 callsubr
          -113 -36 hlineto
          hintmask 10101101
          31 36 callsubr
          -47 hhcurveto
          -21 -97 callsubr
          -211 -46 callsubr
          33 28 8 16 21 hvcurveto
          -100 vlineto
          -107 callsubr
          hintmask 01110011
          32 -121 -16 -99 callsubr
          100 -91 callsubr
          -134 176 rmoveto
          -107 callsubr
          243 vlineto
          -103 callsubr
          endchar
        </CharString>
        <CharString name="germandbls">
          105 0 106 178 102 162 109 hstemhm
          39 178 -125 125 36 193 -124 124 hintmask 11110100
          405 341 32 callsubr
          76 vlineto
          hintmask 11101010
          30 callsubr
          -139 vlineto
          hintmask 11110100
          -53 -106 hlineto
          hintmask 11101010
          53 -174 -59 -106 184 528 hlineto
          -93 callsubr
          67 -105 callsubr
          -116 vlineto
          -98 callsubr
          hintmask 11110100
          -50 -108 56 -105 callsubr
          -138 vlineto
          -98 callsubr
          -62 -106 81 -91 callsubr
          96 vlineto
          56 -17 36 -30 21 vhcurveto
          endchar
        </CharString>
        <CharString name="grave">
          -78 483 102 hstem
          159 483 -60 callsubr
        </CharString>
        <CharString name="greater">
          30 93 -21 468 -20 hstem
          44 422 rmoveto
          230 -117 -230 -117 rlineto
          -116 vlineto
          339 183 rlineto
          102 vlineto
          -339 183 rlineto
          endchar
        </CharString>
        <CharString name="guillemotleft">
          245 39 -21 498 -20 hstem
          358 102 -7 callsubr
          332 84 -7 callsubr
          endchar
        </CharString>
        <CharString name="guillemotright">
          264 39 -21 498 -20 hstem
          357 18 -8 callsubr
          -164 -84 -8 callsubr
          endchar
        </CharString>
        <CharString name="h">
          21 -21 402 96 149 -20 -45 callsubr
          179 hmoveto
          384 vlineto
          10 1 8 8 10 hhcurveto
          55 -105 callsubr
          -382 134 366 -84 callsubr
          -21 hlineto
          -34 -28 -8 -16 -20 hvcurveto
          173 -134 -647 vlineto
          endchar
        </CharString>
        <CharString name="hyphen">
          64 239 107 hstem
          397 346 rmoveto
          -341 -107 341 hlineto
          endchar
        </CharString>
        <CharString name="i">
          -2 callsubr
          60 147 35 callsubr
          130 528 6 callsubr
          -67 -528 rmoveto
          13 callsubr
          endchar
        </CharString>
        <CharString name="iacute">
          20 callsubr
          197 -1 callsubr
          -134 -488 134 hlineto
          63 647 -67 callsubr
        </CharString>
        <CharString name="icircumflex">
          -2 callsubr
          73 106 35 callsubr
          63 hmoveto
          13 callsubr
          225 53 -77 callsubr
        </CharString>
        <CharString name="idieresis">
          -2 callsubr
          75 114 hstemhm
          -8 114 -43 134 -43 114 hintmask 11101000
          63 hmoveto
          13 callsubr
          hintmask 11110100
          43 112 -106 callsubr
        </CharString>
        <CharString name="igrave">
          20 callsubr
          63 hmoveto
          13 callsubr
          68 57 -60 callsubr
        </CharString>
        <CharString name="j">
          -122 -169 98 559 -20 60 147 hstemhm
          3 205 -134 134 hintmask 11101000
          74 -23 rmoveto
          -39 -17 -9 -27 vhcurveto
          hintmask 11110000
          -27 -98 81 -91 callsubr
          37 callsubr
          hintmask 11101000
          -134 hlineto
          67 40 6 callsubr
          endchar
        </CharString>
        <CharString name="k">
          69 -12 callsubr
          179 -20 hstem
          -40 callsubr
          vstem
          429 -1 callsubr
          -132 hlineto
          -73 -175 rlineto
          -45 334 -134 -647 134 203 40 hlineto
          92 -203 rlineto
          134 hlineto
          -116 259 rlineto
          endchar
        </CharString>
        <CharString name="l">
          -163 10 callsubr
          -40 callsubr
          vstem
          179 hmoveto
          647 -134 -647 vlineto
          endchar
        </CharString>
        <CharString name="less">
          30 93 -21 468 -20 hstem
          389 540 rmoveto
          -339 -183 rlineto
          -102 vlineto
          339 -183 rlineto
          60 callsubr
          -230 117 230 117 rlineto
          endchar
        </CharString>
        <CharString name="logicalnot">
          103 199 224 -126 126 hstemhm
          328 119 hintmask 01100000
          45 297 rmoveto
          283 hlineto
          hintmask 10100000
          -98 119 224 -402 vlineto
          endchar
        </CharString>
        <CharString name="m">
          274 34 callsubr
          81 134 81 134 cntrmask 00011100
          hintmask 11011100
          485 498 rmoveto
          -9 hlineto
          -47 -35 -15 -31 -21 hvcurveto
          32 -20 -36 14 -47 hhcurveto
          -9 hlineto
          -41 -32 -11 -24 -21 hvcurveto
          hintmask 10111100
          25 57 callsubr
          134 382 vlineto
          hintmask 11011100
          -93 callsubr
          43 -105 callsubr
          -382 134 382 vlineto
          -93 callsubr
          43 -105 callsubr
          -382 134 366 -84 callsubr
          endchar
        </CharString>
        <CharString name="macron">
          -58 495 68 hstem
          280 563 rmoveto
          -228 -68 228 hlineto
          endchar
        </CharString>
        <CharString name="mu">
          75 -138 -21 149 96 402 -20 -45 callsubr
          45 -1 callsubr
          -647 128 184 vlineto
          -24 21 26 -11 41 hhcurveto
          21 -91 callsubr
          366 27 callsubr
          vlineto
          -107 callsubr
          382 vlineto
          endchar
        </CharString>
        <CharString name="multiply">
          78 137 -21 355 -20 hstem
          338 471 rmoveto
          -107 -108 -107 108 -70 -70 107 -108 -107 -107 70 -70 107 107 107 -107 70 70 -107 107 107 108 rlineto
          endchar
        </CharString>
        <CharString name="n">
          34 callsubr
          93 134 hintmask 11011000
          179 hmoveto
          382 vlineto
          -103 callsubr
          -382 134 366 -84 callsubr
          -21 hlineto
          -41 -32 -11 -24 -21 hvcurveto
          hintmask 10111000
          25 57 callsubr
          vlineto
          endchar
        </CharString>
        <CharString name="nine">
          68 -10 46 callsubr
          85 123 156 123 hstemhm
          53 114 -114 128 103 125 hintmask 10110110
          217 255 rmoveto
          26 22 4 9 19 hvcurveto
          -149 vlineto
          -98 callsubr
          -65 -102 callsubr
          hintmask 01110110
          51 -128 -48 -99 callsubr
          108 -91 callsubr
          403 -84 callsubr
          hintmask 10111010
          -118 -97 callsubr
          -138 -99 callsubr
          259 vmoveto
          -93 callsubr
          79 -105 callsubr
          -116 -10 callsubr
          endchar
        </CharString>
        <CharString name="ntilde">
          21 -29 callsubr
          67 0 callsubr
          hintmask 11010110
          179 hmoveto
          382 vlineto
          -103 callsubr
          -382 134 366 -84 callsubr
          -21 hlineto
          -41 -32 -11 -24 -21 hvcurveto
          hintmask 10110110
          25 57 callsubr
          vlineto
          230 535 rmoveto
          -74 callsubr
          hintmask 11001110
          -79 callsubr
        </CharString>
        <CharString name="numbersign">
          106 21 -21 139 102 96 102 105 -20 hstem
          106 102 75 102 vstem
          446 337 rmoveto
          102 -61 105 -102 -105 -75 105 -102 -105 -62 -102 62 -96 -62 -102 62 -139 102 139 75 -139 102 139 61 102 -61 96 vlineto
          -102 -96 rmoveto
          -75 96 75 hlineto
          endchar
        </CharString>
        <CharString name="o">
          14 callsubr
          -45 callsubr
          -101 callsubr
          endchar
        </CharString>
        <CharString name="oacute">
          14 callsubr
          47 102 -45 callsubr
          -101 callsubr
          94 252 -67 callsubr
        </CharString>
        <CharString name="ocircumflex">
          14 callsubr
          43 106 -45 callsubr
          -101 callsubr
          111 146 -77 callsubr
        </CharString>
        <CharString name="odieresis">
          14 callsubr
          45 9 callsubr
          -93 -13 callsubr
          -90 134 hintmask 11110010
          -101 callsubr
          hintmask 11101100
          -72 205 -106 callsubr
        </CharString>
        <CharString name="ograve">
          14 callsubr
          47 102 -45 callsubr
          -101 callsubr
          -56 150 -60 callsubr
        </CharString>
        <CharString name="one">
          -128 20 -9 callsubr
          hstem
          62 136 vstem
          198 646 rmoveto
          -136 -647 136 hlineto
          endchar
        </CharString>
        <CharString name="onesuperior">
          -207 367 -21 304 -20 hstem
          57 64 vstem
          121 650 rmoveto
          -64 -304 64 hlineto
          endchar
        </CharString>
        <CharString name="ordfeminine">
          -100 420 -21 249 -20 25 -20 hstemhm
          48 67 61 67 hintmask 11011000
          187 648 rmoveto
          -18 vlineto
          hintmask 10111000
          15 -11 -32 8 -24 hhcurveto
          -10 21 callsubr
          10 hlineto
          24 32 7 16 11 hvcurveto
          -18 56 vlineto
          hintmask 11011000
          244 vlineto
          -67 -191 29 callsubr
          138 vlineto
          5 4 5 5 vhcurveto
          43 hlineto
          5 4 -5 -5 hvcurveto
          endchar
        </CharString>
        <CharString name="ordmasculine">
          -96 420 -21 254 -20 hstem
          50 67 61 67 vstem
          183 653 rmoveto
          -71 21 callsubr
          71 hlineto
          40 22 20 46 hvcurveto
          122 vlineto
          46 -22 20 -40 vhcurveto
          -5 -202 29 callsubr
          150 45 callsubr
          43 hlineto
          5 4 -4 -6 hvcurveto
          endchar
        </CharString>
        <CharString name="oslash">
          -40 -21 51 84 341 83 51 -20 -45 callsubr
          418 516 rmoveto
          -57 33 -32 -57 rlineto
          4 -14 -16 2 -17 hhcurveto
          -113 -97 callsubr
          -244 vlineto
          -38 8 -30 15 -21 vhcurveto
          -34 -61 57 -33 32 57 rlineto
          -4 14 15 -2 17 hhcurveto
          -64 callsubr
          244 vlineto
          39 -8 29 -15 21 vhcurveto
          -204 -60 rmoveto
          -103 callsubr
          -2 vlineto
          -93 -164 rlineto
          93 -135 rmoveto
          -107 callsubr
          1 vlineto
          93 164 rlineto
          endchar
        </CharString>
        <CharString name="otilde">
          14 callsubr
          37 0 callsubr
          hintmask 11101100
          -101 callsubr
          5 140 -53 callsubr
        </CharString>
        <CharString name="p">
          23 callsubr
          96 -10 40 callsubr
          282 -10 rmoveto
          -83 callsubr
          244 -84 callsubr
          -21 hlineto
          -47 -35 -15 -31 -21 hvcurveto
          hintmask 11011100
          36 -113 -647 134 173 vlineto
          -16 21 28 -8 33 hhcurveto
          -82 392 rmoveto
          hintmask 11101100
          -103 callsubr
          -276 vlineto
          -107 callsubr
          endchar
        </CharString>
        <CharString name="paragraph">
          142 -42 -21 653 96 hstem
          171 118 48 119 vstem
          508 686 rmoveto
          -352 -97 callsubr
          -105 -99 callsubr
          15 -380 118 653 48 -653 119 653 52 hlineto
          endchar
        </CharString>
        <CharString name="parenleft">
          -133 -60 -21 772 -20 hstem
          30 112 vstem
          227 691 rmoveto
          -117 hlineto
          -53 -120 -27 -128 -133 vvcurveto
          -135 29 -132 56 -124 vhcurveto
          117 hlineto
          -64 123 -26 134 134 vvcurveto
          131 24 130 61 120 vhcurveto
          endchar
        </CharString>
        <CharString name="parenright">
          -119 -60 -21 772 -20 hstem
          120 112 vstem
          35 691 rmoveto
          61 -120 24 -130 -131 vvcurveto
          -134 -26 -134 -64 -123 vhcurveto
          117 hlineto
          56 124 29 132 135 vvcurveto
          133 -27 128 -53 120 vhcurveto
          endchar
        </CharString>
        <CharString name="percent">
          376 11 -21 31 -9 callsubr
          30 -20 hstemhm
          35 102 69 101 149 102 69 101 hintmask 01101111
          529 -19 callsubr
          -393 -647 rlineto
          100 hlineto
          393 647 rlineto
          -446 -329 rmoveto
          -83 callsubr
          75 vlineto
          hintmask 10011111
          -86 callsubr
          -24 -97 callsubr
          -75 -99 callsubr
          -22 82 rmoveto
          176 vlineto
          -93 callsubr
          31 -105 callsubr
          -176 vlineto
          -98 callsubr
          -31 -102 callsubr
          467 -71 rmoveto
          -24 -97 callsubr
          -75 -99 callsubr
          24 -91 callsubr
          75 -84 callsubr
          23 -257 rmoveto
          -98 callsubr
          -31 -102 callsubr
          176 vlineto
          -93 callsubr
          31 -105 callsubr
          endchar
        </CharString>
        <CharString name="period">
          -133 -10 -6 callsubr
          134 rmoveto
          5 callsubr
        </CharString>
        <CharString name="periodcentered">
          -107 234 -6 callsubr
          378 rmoveto
          5 callsubr
        </CharString>
        <CharString name="plus">
          108 121 -21 163 100 162 49 callsubr
          363 rmoveto
          -136 162 -113 -162 -136 -100 136 -163 113 163 136 hlineto
          endchar
        </CharString>
        <CharString name="plusminus">
          108 0 100 195 100 141 49 callsubr
          395 rmoveto
          -136 141 -113 -141 -136 -100 136 -142 113 142 136 hlineto
          -386 -295 rmoveto
          386 100 -386 hlineto
          endchar
        </CharString>
        <CharString name="q">
          23 callsubr
          86 10 40 callsubr
          190 -10 rmoveto
          33 28 8 16 21 hvcurveto
          -173 134 647 -113 -36 vlineto
          hintmask 11011100
          31 36 callsubr
          -47 hhcurveto
          -65 callsubr
          103 116 rmoveto
          -107 callsubr
          276 vlineto
          hintmask 11101100
          -103 callsubr
          endchar
        </CharString>
        <CharString name="question">
          36 -10 144 56 189 -114 114 88 12 callsubr
          31 124 -34 117 -117 133 15 121 hintmask 1011010010000000
          257 265 rmoveto
          9 -91 callsubr
          118 -84 callsubr
          -111 -97 callsubr
          -48 124 51 vlineto
          hintmask 1100101010000000
          -93 callsubr
          76 -105 callsubr
          -119 vlineto
          -98 callsubr
          -5 -97 callsubr
          -57 117 55 vlineto
          hintmask 1011000110000000
          -93 callsubr
          -76 -131 rmoveto
          5 callsubr
        </CharString>
        <CharString name="questiondown">
          36 -157 46 callsubr
          88 114 -114 189 56 144 hstemhm
          31 121 15 133 -117 117 -34 124 hintmask 1010110010000000
          155 225 rmoveto
          -87 callsubr
          -118 -99 callsubr
          111 -91 callsubr
          hintmask 0110110010000000
          48 -124 -51 vlineto
          hintmask 1010111000000000
          -98 callsubr
          -76 -102 callsubr
          119 vlineto
          -93 callsubr
          5 -91 callsubr
          hintmask 1001110100000000
          57 -117 -55 vlineto
          hintmask 1010111000000000
          -98 callsubr
          76 131 rmoveto
          39 32 32 41 39 -32 32 -39 -41 -32 -32 -39 -41 32 -32 41 hvcurveto
          endchar
        </CharString>
        <CharString name="quotedbl">
          -11 440 207 hstem
          58 102 55 16 callsubr
          170 207 rmoveto
          -115 hlineto
          12 -207 rlineto
          90 hlineto
          endchar
        </CharString>
        <CharString name="quotesingle">
          -166 440 207 hstem
          58 16 callsubr
          endchar
        </CharString>
        <CharString name="r">
          -93 21 -21 368 120 10 -20 hstemhm
          -40 callsubr
          -134 234 hintmask 10110000
          253 498 rmoveto
          -36 -33 -23 -34 -17 hvcurveto
          hintmask 11010000
          47 57 callsubr
          134 333 vlineto
          18 9 17 25 vhcurveto
          hintmask 11001000
          66 hlineto
          hintmask 10101000
          130 vlineto
          endchar
        </CharString>
        <CharString name="registered">
          191 29 66 463 66 hstem
          56 66 65 75 46 76 68 66 vstem
          464 624 rmoveto
          -354 hlineto
          -30 -24 -24 -30 hvcurveto
          -487 vlineto
          -30 24 -24 30 vhcurveto
          354 hlineto
          30 24 24 30 hvcurveto
          487 vlineto
          30 -24 24 -30 vhcurveto
          -12 -529 rmoveto
          -330 463 330 hlineto
          -190 -263 rmoveto
          36 hlineto
          7 3 -5 -6 hvcurveto
          -131 76 137 vlineto
          18 -5 18 -22 8 vhcurveto
          20 8 10 16 31 vvcurveto
          40 vlineto
          49 -24 22 -42 vhcurveto
          -134 -347 75 hlineto
          296 vmoveto
          40 hlineto
          5 5 -5 -6 hvcurveto
          -80 vlineto
          -6 -5 -4 -5 vhcurveto
          -40 hlineto
          endchar
        </CharString>
        <CharString name="ring">
          -89 483 163 hstem
          44 71 64 70 vstem
          179 646 rmoveto
          -54 callsubr
        </CharString>
        <CharString name="s">
          46 -10 99 -99 163 36 117 42 150 -99 99 hstemhm
          38 115 131 107 hintmask 10101110
          275 306 rmoveto
          -103 -102 callsubr
          53 vlineto
          -93 callsubr
          76 -105 callsubr
          hintmask 10110110
          -31 124 18 -84 callsubr
          -105 -97 callsubr
          -45 28 callsubr
          -60 vlineto
          -98 callsubr
          -82 -102 callsubr
          hintmask 01110110
          44 -124 -31 -99 callsubr
          111 -91 callsubr
          52 -84 callsubr
          endchar
        </CharString>
        <CharString name="section">
          55 -168 91 -91 150 48 103 120 104 48 150 -91 91 hstemhm
          38 115 131 115 hintmask 10110111
          399 217 rmoveto
          8 -84 callsubr
          -103 -102 callsubr
          67 vlineto
          -93 callsubr
          81 -105 callsubr
          hintmask 10111011
          -39 124 18 -84 callsubr
          -110 -97 callsubr
          -42 vlineto
          -50 13 -34 25 -22 vhcurveto
          -25 -21 -13 -34 -50 vvcurveto
          -8 28 callsubr
          -67 vlineto
          -98 callsubr
          -81 -102 callsubr
          hintmask 01111011
          39 -124 -18 -99 callsubr
          110 -91 callsubr
          42 vlineto
          50 -13 34 -25 21 vhcurveto
          25 22 13 34 50 vvcurveto
          -227 -84 rmoveto
          -94 callsubr
          80 vlineto
          -93 callsubr
          93 -105 callsubr
          -80 vlineto
          -98 callsubr
          endchar
        </CharString>
        <CharString name="semicolon">
          -133 -145 204 276 -6 callsubr
          479 rmoveto
          -70 callsubr
          68 -420 31 callsubr
        </CharString>
        <CharString name="seven">
          34 21 -21 540 107 hstem
          49 -19 callsubr
          -107 174 vlineto
          -105 -540 rlineto
          127 54 callsubr
        </CharString>
        <CharString name="six">
          79 -10 123 156 123 85 12 callsubr
          56 125 103 128 -114 114 hintmask 11011010
          298 392 rmoveto
          -50 hlineto
          -26 -22 -4 -9 -19 hvcurveto
          149 vlineto
          -93 callsubr
          65 hlineto
          hintmask 11101100
          -96 callsubr
          -51 128 48 -84 callsubr
          -108 -97 callsubr
          -403 -99 callsubr
          hintmask 11101010
          118 -91 callsubr
          138 -84 callsubr
          -259 vmoveto
          -98 callsubr
          -79 -102 callsubr
          60 callsubr
          -93 callsubr
          79 -105 callsubr
          endchar
        </CharString>
        <CharString name="slash">
          -89 -51 -21 746 -20 hstem
          241 674 rmoveto
          -283 -746 rlineto
          107 hlineto
          283 746 rlineto
          endchar
        </CharString>
        <CharString name="space">
          -185 endchar
        </CharString>
        <CharString name="sterling">
          107 0 101 174 101 88 193 -95 95 hstemhm
          96 140 101 133 hintmask 11101100
          470 464 rmoveto
          61 -84 callsubr
          -126 -97 callsubr
          -149 -64 -101 64 -174 -64 -101 373 101 -169 174 97 101 -97 166 vlineto
          hintmask 11011100
          -93 callsubr
          63 -105 callsubr
          hintmask 11101100
          -78 vlineto
          endchar
        </CharString>
        <CharString name="t">
          -99 -10 87 314 97 106 -20 hstemhm
          -40 callsubr
          -134 218 hintmask 11110000
          223 77 rmoveto
          -27 -17 9 39 hvcurveto
          266 vlineto
          hintmask 11101000
          84 97 hlineto
          hintmask 11110000
          -84 106 -134 -472 hlineto
          -90 callsubr
          hintmask 11101000
          94 87 hlineto
          endchar
        </CharString>
        <CharString name="thorn">
          52 23 callsubr
          96 149 -20 -45 callsubr
          45 -159 rmoveto
          134 172 hlineto
          -15 20 28 -8 34 18 callsubr
          -21 hlineto
          43 callsubr
          vlineto
          134 -265 rmoveto
          -103 callsubr
          -276 vlineto
          -107 callsubr
          endchar
        </CharString>
        <CharString name="three">
          68 -10 106 -106 185 99 108 82 193 15 callsubr
          52 125 -11 240 -124 124 hintmask 10110010
          365 331 32 callsubr
          86 vlineto
          hintmask 10110101
          30 callsubr
          -57 0 -2 -2 vvcurveto
          125 64 hlineto
          hintmask 10101101
          -93 callsubr
          67 -105 callsubr
          -126 vlineto
          -98 callsubr
          hintmask 10110010
          -97 -108 103 -105 callsubr
          -138 -10 callsubr
          hintmask 01110101
          59 -125 -53 -5 callsubr
          endchar
        </CharString>
        <CharString name="threesuperior">
          -110 363 -21 313 -20 hstem
          54 59 49 58 vstem
          201 502 rmoveto
          13 9 6 17 25 vvcurveto
          40 vlineto
          43 -21 19 -37 vhcurveto
          -50 48 callsubr
          -29 59 30 45 callsubr
          31 hlineto
          5 4 -4 -6 hvcurveto
          -59 vlineto
          -5 -4 -4 -5 vhcurveto
          -45 -51 48 hlineto
          5 4 -4 -5 hvcurveto
          -65 vlineto
          -5 -4 -4 -5 vhcurveto
          -37 hlineto
          -5 -4 4 5 hvcurveto
          28 -59 -25 vlineto
          -43 21 -19 38 vhcurveto
          55 hlineto
          37 21 19 43 hvcurveto
          45 vlineto
          26 -8 17 -14 10 vhcurveto
          endchar
        </CharString>
        <CharString name="tilde">
          -14 473 80 hstemhm
          235 473 rmoveto
          -74 callsubr
          hintmask 10000000
          -79 callsubr
        </CharString>
        <CharString name="two">
          77 0 115 127 123 112 12 callsubr
          52 135 95 129 hintmask 11101100
          187 222 rmoveto
          -93 callsubr
          81 -91 callsubr
          151 -84 callsubr
          -111 -97 callsubr
          -48 133 51 vlineto
          hintmask 11011100
          -93 callsubr
          59 -105 callsubr
          -143 vlineto
          -98 callsubr
          -80 -97 callsubr
          -233 344 115 -216 vlineto
          endchar
        </CharString>
        <CharString name="twosuperior">
          -107 347 54 59 58 52 85 hstem
          54 63 45 60 vstem
          117 451 rmoveto
          5 4 4 5 vhcurveto
          38 hlineto
          37 21 19 43 hvcurveto
          71 vlineto
          43 -21 19 -37 vhcurveto
          -52 48 callsubr
          -23 62 24 45 callsubr
          28 hlineto
          4 5 -4 -6 hvcurveto
          -67 vlineto
          -5 -5 -4 -4 vhcurveto
          -38 48 callsubr
          -109 161 54 -101 vlineto
          endchar
        </CharString>
        <CharString name="u">
          -4 callsubr
          -63 callsubr
          hintmask 10111000
          -76 callsubr
          hintmask 01111000
          8 callsubr
          endchar
        </CharString>
        <CharString name="uacute">
          -56 callsubr
          -43 159 -67 callsubr
        </CharString>
        <CharString name="ucircumflex">
          -4 callsubr
          73 106 -73 callsubr
          -23 53 -77 callsubr
        </CharString>
        <CharString name="udieresis">
          -4 callsubr
          65 9 callsubr
          19 callsubr
          hintmask 10111001
          -76 callsubr
          hintmask 01110101
          8 callsubr
          -205 102 rmoveto
          -104 callsubr
          hintmask 10111010
          162 hmoveto
          -104 callsubr
          endchar
        </CharString>
        <CharString name="ugrave">
          -56 callsubr
          -187 57 -60 callsubr
        </CharString>
        <CharString name="underscore">
          74 -186 77 hstem
          32 -186 rmoveto
          400 77 -400 hlineto
          endchar
        </CharString>
        <CharString name="v">
          26 -12 callsubr
          hstem
          270 -1 callsubr
          -65 -379 -66 42 callsubr
          177 hlineto
          107 488 rlineto
          endchar
        </CharString>
        <CharString name="w">
          275 -12 callsubr
          hstem
          267 -1 callsubr
          -73 -379 -57 42 callsubr
          162 hlineto
          55 301 55 -301 rlineto
          162 hlineto
          107 488 rlineto
          -130 hlineto
          -57 -379 -73 379 rlineto
          endchar
        </CharString>
        <CharString name="x">
          50 -12 callsubr
          hstem
          217 160 rmoveto
          74 -160 rlineto
          139 hlineto
          -136 260 127 228 rlineto
          -146 hlineto
          -58 -146 -58 146 rlineto
          -146 hlineto
          127 -228 -136 -260 rlineto
          139 hlineto
          endchar
        </CharString>
        <CharString name="y">
          1 callsubr
          2 callsubr
          -25 callsubr
          hintmask 10111010
          272 -1 callsubr
          -350 vlineto
          -107 callsubr
          350 -134 -334 -46 callsubr
          34 27 7 17 21 hvcurveto
          -99 vlineto
          -98 callsubr
          -46 -102 callsubr
          hintmask 01110110
          -33 callsubr
          endchar
        </CharString>
        <CharString name="yacute">
          1 callsubr
          77 102 2 callsubr
          -25 callsubr
          hintmask 10111101
          272 -1 callsubr
          -350 vlineto
          -107 callsubr
          350 -134 -334 -46 callsubr
          34 27 7 17 21 hvcurveto
          -99 vlineto
          -98 callsubr
          -46 -102 callsubr
          hintmask 01111011
          -33 callsubr
          -43 159 -67 callsubr
        </CharString>
        <CharString name="ydieresis">
          1 callsubr
          75 114 2 callsubr
          19 callsubr
          hintmask 1011110001000000
          272 -1 callsubr
          -350 vlineto
          -107 callsubr
          350 -134 -334 -46 callsubr
          34 27 7 17 21 hvcurveto
          -99 vlineto
          -98 callsubr
          -46 -102 callsubr
          hintmask 0111101001000000
          -33 callsubr
          hintmask 1011100110000000
          -205 112 -106 callsubr
        </CharString>
        <CharString name="yen">
          50 21 -21 130 72 65 72 308 -20 -39 callsubr
          104 -308 rlineto
          -86 -72 110 hlineto
          11 -31 rlineto
          -34 -121 -72 121 -130 140 130 121 72 -121 34 vlineto
          10 31 rlineto
          111 72 -87 hlineto
          endchar
        </CharString>
        <CharString name="z">
          -1 0 99 291 98 hstem
          169 99 rmoveto
          192 300 rlineto
          89 -330 -98 189 vlineto
          -189 -296 rlineto
          -94 330 99 vlineto
          endchar
        </CharString>
        <CharString name="zero">
          66 25 callsubr
          hstem
          50 136 95 136 vstem
          417 -30 callsubr
          -119 -97 callsubr
          -403 -99 callsubr
          119 -91 callsubr
          -136 -16 rmoveto
          -98 callsubr
          -57 -102 callsubr
          436 vlineto
          -93 callsubr
          57 -105 callsubr
          endchar
        </CharString>
</ttFont>
